#!OML:ASF F:\VICON\USERDATA\INSTALL\rory3\rory3.ASF
:FULLY-SPECIFIED
:DEGREES
699
root -12.7699 17.5827 9.3419 -362.88 0.779341 -361.536
lowerback 11.1634 1.1254 -2.65245
upperback 0.329921 1.246 1.43977
thorax -6.01283 0.708418 2.80901
lowerneck -17.3455 -7.89138 -13.1461
upperneck 30.1272 -11.4054 11.9105
head 14.8859 -4.91687 5.05861
rclavicle 5.04571e-015 1.71949e-014
rhumerus -39.9897 -25.7757 -70.4207
rradius 30.1195
rwrist 8.29886
rhand -22.4515 9.57562
rfingers 7.12502
rthumb 3.97282 -20.3671
lclavicle 5.04571e-015 1.71949e-014
lhumerus -31.9187 1.87325 81.5802
lradius 30.1411
lwrist -2.23374
lhand -20.5532 25.9026
lfingers 7.12502
lthumb 5.80574 55.8031
rfemur -3.79611 4.55609 -0.604317
rtibia 24.1915
rfoot 7.25502 -2.73709
rtoes 12.2967
lfemur 0.00923094 -8.68764 -9.77856
ltibia 21.3255
lfoot -14.8499 -4.28413
ltoes -24.7413
700
root -12.8973 17.567 9.3426 -362.895 0.906775 -361.541
lowerback 11.2076 1.10487 -2.72805
upperback 0.322458 1.20554 1.40103
thorax -6.04346 0.69067 2.81717
lowerneck -17.3451 -7.86907 -13.0589
upperneck 30.1701 -11.3768 11.8309
head 14.8868 -4.90441 5.01689
rclavicle 1.08477e-015 1.3418e-015
rhumerus -39.9185 -25.4605 -70.6977
rradius 30.3097
rwrist 7.99677
rhand -22.3514 9.62935
rfingers 7.12502
rthumb 4.06946 -20.3115
lclavicle 1.08477e-015 1.3418e-015
lhumerus -31.7793 2.1545 81.1172
lradius 29.9441
lwrist -2.10063
lhand -20.456 25.6573
lfingers 7.12502
lthumb 5.89955 55.5551
rfemur -3.72242 4.89444 -0.418764
rtibia 24.3171
rfoot 6.5834 -1.81708
rtoes 7.06435
lfemur -0.035652 -9.08604 -9.29862
ltibia 21.3572
lfoot -14.899 -4.1651
ltoes -26.2763
701
root -13.0274 17.5458 9.34458 -362.871 1.01168 -361.376
lowerback 11.1952 1.10402 -2.97141
upperback 0.319178 1.16835 1.3199
thorax -6.04075 0.678183 2.87564
lowerneck -17.3071 -7.85129 -13.0898
upperneck 30.1255 -11.3385 11.8326
head 14.8536 -4.893 5.02941
rclavicle -4.21622e-015 -1.01877e-014
rhumerus -39.7622 -25.1411 -70.9931
rradius 30.4118
rwrist 7.86647
rhand -22.4671 9.56021
rfingers 7.12502
rthumb 3.95773 -20.3828
lclavicle -4.21622e-015 -1.01877e-014
lhumerus -31.7232 2.43346 80.6917
lradius 29.8074
lwrist -2.0985
lhand -20.4624 25.1346
lfingers 7.12502
lthumb 5.89337 55.0327
rfemur -3.67966 5.16221 -0.416773
rtibia 24.4903
rfoot 5.19673 -1.57343
rtoes 2.21704
lfemur -0.164628 -9.41088 -8.98257
ltibia 21.5033
lfoot -14.8685 -4.2145
ltoes -26.4286
702
root -13.1601 17.5185 9.34832 -362.86 1.05182 -361.261
lowerback 11.1678 1.10022 -3.16754
upperback 0.309557 1.13527 1.26237
thorax -6.03599 0.66677 2.9317
lowerneck -17.266 -7.80956 -13.1428
upperneck 30.0887 -11.2552 11.8259
head 14.8164 -4.86624 5.05175
rclavicle -3.77885e-015 -1.39025e-014
rhumerus -39.6184 -24.6913 -71.3341
rradius 30.5256
rwrist 7.53817
rhand -22.4623 9.64439
rfingers 7.12502
rthumb 3.96239 -20.2985
lclavicle -3.77885e-015 -1.39025e-014
lhumerus -31.8374 2.80639 80.2483
lradius 29.8466
lwrist -2.18352
lhand -20.3979 25.1251
lfingers 7.12502
lthumb 5.9557 55.0214
rfemur -3.62201 4.81661 -0.381021
rtibia 24.6474
rfoot 3.57287 -1.34779
rtoes -1.89917
lfemur -0.270639 -9.66227 -8.61274
ltibia 21.6985
lfoot -15.2177 -3.85755
ltoes -29.2625
703
root -13.2946 17.4962 9.35616 -362.88 1.05464 -361.184
lowerback 11.1903 1.10037 -3.31324
upperback 0.26172 1.1115 1.19507
thorax -6.0991 0.660079 2.94672
lowerneck -17.2039 -7.75555 -13.138
upperneck 30.1598 -11.1914 11.8246
head 14.823 -4.84125 5.06826
rclavicle 3.60297e-016 -1.00386e-014
rhumerus -39.5757 -24.2064 -71.6817
rradius 30.7351
rwrist 7.13356
rhand -22.1211 9.61216
rfingers 7.12502
rthumb 4.29186 -20.3243
lclavicle 3.60297e-016 -1.00386e-014
lhumerus -31.9819 3.32066 79.7027
lradius 29.9066
lwrist -2.3057
lhand -20.069 26.0532
lfingers 7.12502
lthumb 6.2732 55.9403
rfemur -3.56184 4.44851 -0.235546
rtibia 24.8644
rfoot 2.10131 -1.15578
rtoes -6.05615
lfemur -0.29608 -9.90044 -8.24122
ltibia 21.9175
lfoot -15.8896 -3.11335
ltoes -33.4166
